PathFileType	4	(X/Y/Z)	C:/Users/beibeiliu/ov580/test_trc\sequence.8_training_dense_right.trc
DataRate	CameraRate	NumFrames	NumMarkers	Units	OrigDataRate	OrigDataStartFrame	OrigNumFrames
120	120	24	19	mm	120	188	375
Frame#	Time	ThumbCMC			ThumbMCP			ThumbIP			ThumbTip			IndexMCP			IndexPIP			IndexTip			MiddleMCP			MiddlePIP			MiddleTip			RingMCP			RingPIP			RingTip			PinkyMCP			PinkyPIP			PinkyTip			BackHand1			BackHand2			BackHand3	
		X0	Y0	Z0	X1	Y1	Z1	X2	Y2	Z2	X3	Y3	Z3	X4	Y4	Z4	X5	Y5	Z5	X6	Y6	Z6	X7	Y7	Z7	X8	Y8	Z8	X9	Y9	Z9	X10	Y10	Z10	X11	Y11	Z11	X12	Y12	Z12	X13	Y13	Z13	X14	Y14	Z14	X15	Y15	Z15	X16	Y16	Z16	X17	Y17	Z17	X18	Y18	Z18	
187	1.55833	202.822	33.9039	-17.3164	196.02	38.7891	-43.6631	186.648	49.3199	-59.5012	177.141	59.5837	-70.7813	227.19	36.1637	-80.221	206.598	12.8243	-86.4159	204.883	8.6506	-57.7465	236.108	19.4229	-79.2423	213.426	-1.71128	-75.6695	214.808	7.02807	-45.1711	242.302	3.34245	-74.0586	222.276	-7.80178	-65.6982	222.726	4.16856	-37.1348	251.733	-9.83765	-63.6156	230.133	-16.5764	-53.0312	228.898	-0.803614	-31.0629	258.586	24.5726	-27.2743	249.966	23.2794	-3.17666	233.34	42.1185	-20.8396	
188	1.56667	204	33.529	-18.4229	191.738	38.6107	-42.4229	188.332	49.8205	-63.4945	177.206	57.6968	-73.3804	224.703	36.3176	-83.3843	210.623	11.1978	-85.3115	207.06	8.46362	-57.611	235.515	19.0516	-82.4358	220.978	-4.73133	-78.1644	216.702	7.02471	-44.6067	243.651	5.95998	-73.0447	224.695	-10.2827	-64.5108	224.815	2.16814	-36.6885	253.11	-3.58082	-62.2457	230.579	-13.2296	-55.0421	229.501	2.27805	-32.3217	257.201	25.0876	-26.8766	249.877	26.4409	-4.42402	235.783	40.9364	-16.7507	
189	1.575	201.068	36.1353	-23.7234	192.721	39.4296	-47.5925	185.807	49.085	-68.248	178.744	55.0705	-79.9333	224.789	36.042	-81.6555	209.512	10.0279	-85.8458	205.161	9.63817	-58.354	236.833	19.0845	-83.0386	216.84	-4.58552	-76.4267	214.422	3.95864	-46.9537	243.837	4.10646	-74.929	224.688	-8.36384	-64.0924	226.745	0.504537	-37.8	258.433	-4.40588	-60.6567	232.901	-11.4897	-54.7151	231.833	0.539275	-35.3285	258.852	28.1926	-28.6097	248.284	28.0122	-3.34569	231.12	43.7356	-20.9015	
190	1.58333	199.974	33.741	-21.9407	192.873	37.5746	-49.7745	186.166	44.3535	-68.6758	178.282	52.8511	-84.9183	222.758	34.9156	-85.4297	211.716	8.92219	-87.5129	208.012	8.4222	-56.8076	238.844	21.2062	-81.272	222.311	-6.46866	-76.1952	218.877	4.25978	-45.5166	244.697	4.86669	-74.804	227.71	-8.76763	-64.3828	227.153	4.66446	-36.4617	257.479	1.81484	-61.4923	235.997	-12.0779	-55.5662	233.655	0.934017	-34.7454	258.255	30.5977	-32.3898	246.568	29.8289	-2.64655	228.349	46.3519	-23.0141	
191	1.59167	201.553	35.088	-28.3065	192.793	33.4531	-49.2037	184.623	42.6884	-75.257	176.728	45.0904	-86.359	225.44	31.0749	-88.1044	215.187	7.25373	-88.612	207.636	5.81289	-60.8524	238.966	17.2258	-84.5745	226.108	-6.21391	-78.2475	217.74	4.31886	-47.4906	250.389	8.88543	-73.1938	229.939	-7.55135	-64.2716	225.786	6.27187	-39.7106	260.551	0.446086	-62.2303	240.338	-12.703	-52.2189	233.962	7.47141	-34.7841	253.834	38.6583	-32.8433	243.674	34.7304	-5.95549	230.017	46.5803	-27.5594	
192	1.6	197.918	34.828	-29.4107	186.511	32.2299	-54.0235	187.485	36.9562	-77.1462	178.145	37.5441	-92.4719	221.154	33.5077	-88.8201	219.875	7.00103	-90.2501	210.831	7.19076	-58.4859	240.191	19.1407	-84.4296	226.059	-5.23201	-76.7038	217.004	5.09746	-47.5894	247.729	9.06686	-75.2643	234.877	-8.74609	-63.1903	225.402	9.52781	-39.584	257.602	5.51499	-62.8856	240.762	-9.30337	-51.6609	235.841	5.21926	-32.2742	252.353	40.0704	-33.9477	242.21	39.7043	-10.3292	223.509	49.5048	-24.8802	
193	1.60833	197.436	31.5715	-27.7779	187.524	29.3438	-58.7598	183.856	28.3268	-76.1403	179.305	29.1801	-97.0827	221.522	34.4568	-88.1027	218.339	5.78527	-91.0616	209.265	7.90339	-60.06	237.454	20.1592	-85.2462	228.488	-4.22939	-79.8412	218.152	4.25945	-50.0444	252.002	14.7743	-72.9414	233.188	-5.24098	-63.1036	225.907	9.90408	-39.0185	264.289	8.2833	-59.5009	243.215	-7.55902	-49.4482	236.984	9.95941	-31.4163	253.733	45.2063	-36.8701	243.311	42.4028	-6.68124	221.278	50.2462	-26.3537	
194	1.61667	193.25	30.7242	-31.4538	185.158	23.8631	-58.8727	183.072	23.232	-81.3063	181.554	19.9706	-98.0997	223.774	29.834	-91.6214	219.865	2.82691	-89.0516	215.633	5.44981	-60.7439	240.588	19.6983	-86.4802	233.789	-5.9323	-75.8506	220.895	4.44562	-48.2267	251.595	14.9695	-73.764	239.643	-5.3751	-62.73	229.625	6.2491	-39.3869	259.666	11.5486	-63.1143	248.94	-4.92207	-51.9534	234.542	10.368	-37.242	248.017	47.4819	-39.2185	238.931	47.6067	-10.4545	217.658	52.8394	-31.8834	
195	1.625	194.994	29.9319	-34.451	187.919	19.9224	-60.3096	184.197	15.9525	-78.964	183.64	13.0288	-99.2529	221.357	28.0936	-92.3369	219.645	1.2434	-89.1415	210.026	7.62674	-59.1358	236.467	21.7797	-87.8801	232.55	-5.15922	-76.7898	224.65	3.59319	-48.2261	252.685	15.669	-73.8827	241.462	-3.94841	-63.4698	228.668	8.62593	-40.1774	262.107	14.4295	-63.3708	250.843	-2.70021	-51.5823	232.7	14.5753	-36.6836	241.348	49.4179	-38.2998	235.682	48.324	-12.3472	215.482	51.1806	-31.7994	
196	1.63333	192.255	25.6308	-33.8768	186.625	14.5638	-60.0909	183.474	9.38204	-78.9534	177.433	3.53342	-97.9848	217.939	25.9484	-94.7492	220.307	0.250493	-88.8718	210.611	4.18454	-60.0663	236.344	20.2743	-88.3385	234.4	-5.93931	-76.2399	221.446	7.00034	-47.415	248.54	19.139	-76.9562	242.407	-3.96843	-62.5753	230.173	8.62248	-40.0446	258.617	19.8474	-64.4087	247.753	-0.0497813	-50.9105	235.173	10.4433	-34.1269	242.88	53.8756	-41.1853	232.605	49.059	-10.9122	212.455	50.2787	-34.3425	
197	1.64167	190.016	21.4753	-32.4317	182.597	8.86189	-60.642	178.711	3.28309	-80.0183	177.635	-4.17331	-94.4029	213.723	24.4304	-93.2657	219.902	-3.26778	-86.7365	214.774	1.39397	-60.9838	230.438	23.3382	-88.5348	233.333	-5.75485	-80.8099	221.417	6.26308	-47.9506	244.32	19.4844	-78.1969	240.984	-3.3868	-62.0664	226.592	7.29727	-43.3156	260.981	22.1817	-64.7361	247.128	1.06652	-52.9895	233.217	13.7963	-39.5071	235.836	51.7214	-44.1163	224.769	48.5144	-13.1409	203.885	49.345	-36.091	
198	1.65	189.086	18.7874	-33.1544	183.594	4.16101	-54.3203	177.554	-2.89655	-77.4072	171.292	-12.3643	-96.123	207.436	22.6934	-94.2007	219.783	-4.97291	-88.2518	209.188	-0.390688	-59.0414	232.063	20.3249	-89.1487	229.722	-8.58117	-78.8903	219.051	1.67755	-49.5805	244.243	19.9322	-78.1326	238.471	-4.41022	-63.5545	225.457	6.03222	-45.6106	256.415	21.3781	-67.9745	247.221	1.44556	-53.4654	233.101	11.4052	-38.6	230.814	51.1252	-43.8082	221.341	50.8543	-19.7536	203.473	46.2033	-35.6712	
199	1.65833	187.824	15.2469	-37.5889	179.697	-2.40836	-59.8427	177.873	-8.56365	-79.8698	172.857	-18.3765	-93.9634	209.667	15.9475	-95.8521	215.386	-9.24494	-91.8028	211.894	-5.42152	-62.308	228.152	16.3262	-91.7601	230.546	-9.75446	-81.2691	220.594	2.28768	-49.7073	241.992	17.8803	-80.2726	235.982	-5.33595	-66.436	225.464	8.04836	-43.3474	254.914	23.3063	-68.834	245.75	0.180036	-55.5797	230.294	11.9609	-40.7505	229.132	51.1907	-48.612	219.243	48.2726	-18.3916	195.017	43.0044	-38.5466	
200	1.66667	186.693	9.10396	-35.4898	182.524	-8.47967	-53.9988	176.958	-17.2444	-77.7185	171.261	-27.7053	-90.8094	203.569	11.4723	-96.1609	217.392	-13.3363	-89.7026	211.273	-8.23517	-62.1032	227.179	12.5497	-92.1453	233.555	-11.4977	-80.0511	221.035	-1.21746	-50.4154	241.01	15.5769	-82.3825	239.473	-5.91933	-64.5181	225.572	8.37306	-42.9131	253.821	22.2589	-71.3502	244.118	0.116439	-57.6928	229.093	11.1966	-40.8966	219.143	48.3351	-50.5555	217.51	47.4576	-18.5065	194.952	39.427	-40.5028	
201	1.675	183.533	2.77924	-32.9624	180.477	-15.4665	-56.4224	177.049	-24.1423	-72.3233	171.774	-35.5239	-87.959	200.81	5.67359	-96.3335	218.557	-17.4504	-89.447	210.334	-12.658	-62.1284	224.906	9.9412	-92.5171	230.03	-17.031	-80.9235	217.041	-3.36362	-50.5364	238.632	15.3471	-82.8382	241.871	-7.37586	-67.3534	222.55	2.7889	-46.5322	249.02	21.7603	-72.9369	247.527	-0.91077	-60.2847	228.944	10.3277	-42.9993	220.11	46.1898	-52.1558	210.823	44.6567	-24.4341	189.953	30.7598	-39.7358	
202	1.68333	184.547	-1.54617	-35.605	183.104	-20.6474	-52.9474	176.934	-32.0638	-73.0325	173.849	-41.088	-87.6191	199.775	-3.70914	-98.5257	217.465	-22.1428	-88.4249	210.777	-14.5477	-60.6421	217.648	5.37005	-93.0723	232.464	-18.6362	-79.1856	217.471	-10.3185	-53.4733	233.164	8.87557	-85.8813	238.276	-10.3147	-66.1563	223.942	0.25734	-47.1251	247.505	18.6515	-75.3376	243.668	-2.60187	-62.1652	228.332	7.65117	-42.4559	213.15	43.8537	-52.0555	211.207	42.5841	-26.594	188.529	27.8991	-41.7463	
203	1.69167	180.86	-8.02002	-35.3634	180.832	-27.2676	-49.961	178.542	-37.7208	-70.232	172.425	-50.596	-82.708	199.519	-10.3715	-96.8675	215.888	-28.9323	-87.4631	206.228	-18.8873	-57.4763	219.405	-1.80016	-94.9905	231.397	-21.6222	-79.4613	218.444	-9.50844	-51.534	233.472	7.14563	-85.6624	236.546	-13.2573	-65.2237	222.277	1.34091	-46.0398	243.084	13.2122	-77.7877	240.764	-3.71658	-61.1653	226.803	4.59815	-44.6318	208.336	39.324	-55.2637	207.433	42.0855	-24.3432	183.468	24.2878	-44.1582	
204	1.7	183.226	-11.5125	-29.7333	183.871	-30.7409	-48.2832	176.887	-45.3928	-64.1369	173.433	-57.8805	-74.0001	200.178	-14.7728	-95.7891	216.019	-33.7107	-83.3798	208.479	-20.4449	-55.4596	217.808	-5.28824	-93.277	233.052	-23.3106	-77.8003	216.448	-15.9056	-50.2152	230.507	-0.189658	-86.5617	238.076	-14.7131	-63.6709	218.603	-4.16029	-46.3827	239.099	12.6048	-77.6909	243.368	-4.72765	-59.4098	225.129	1.52251	-44.5294	206.036	33.4265	-54.8355	202.91	37.133	-28.3048	182.394	18.1412	-41.9243	
205	1.70833	182.786	-16.3598	-28.4615	180.829	-37.9595	-39.8896	176.582	-51.7797	-56.3688	172.194	-64.3529	-68.5498	197.982	-22.153	-92.1873	215.833	-38.1454	-79.6854	210.224	-29.7615	-55.1723	212.858	-8.53343	-90.6576	231.048	-27.4152	-77.8116	215.308	-15.8291	-47.8936	229.607	-2.74822	-86.4979	235.226	-19.3812	-67.4492	218.877	-9.81103	-47.0542	233.101	10.3477	-77.3588	240.722	-9.09632	-61.8608	222.116	-1.88659	-43.0794	202.274	31.8567	-56.346	196.801	32.004	-26.185	179.918	14.4787	-41.396	
206	1.71667	180.866	-20.2837	-25.9391	181.038	-43.0825	-38.9541	174.238	-60.0168	-52.4876	168.833	-72.3582	-58.4067	194.725	-27.9092	-89.5741	213.363	-43.1077	-79.0488	207.801	-31.2616	-51.7422	208.065	-14.6358	-89.9784	230.193	-32.0617	-76.9704	215.077	-22.4456	-47.4343	222.859	-5.09305	-85.0586	234.316	-22.3062	-63.1139	217.947	-8.85885	-43.3362	230.591	5.28075	-77.7323	236.406	-14.1409	-60.7872	222.91	-6.56262	-42.5447	195.75	23.136	-55.2468	197.026	29.227	-29.3455	179.616	8.57763	-40.0527	
207	1.725	181.389	-23.2138	-20.3697	181.474	-44.4805	-36.5846	171.14	-63.378	-45.7733	166.27	-75.7222	-49.2722	189.791	-35.029	-86.4205	212.542	-46.5349	-76.989	206.209	-36.3652	-51.4984	207.603	-24.0734	-89.0117	226.71	-37.0245	-75.9839	211.942	-26.5319	-45.895	218.652	-9.6638	-83.3936	231.57	-25.9667	-61.628	218.615	-15.1461	-43.4371	226.531	1.44362	-76.8607	238.293	-15.29	-58.9006	221.782	-10.2223	-41.3715	193.262	20.2303	-53.9127	195.465	28.5468	-24.7204	176.217	5.7213	-34.8119	
208	1.73333	179.653	-26.5625	-18.9359	178.963	-47.8973	-29.4368	169.254	-64.8432	-42.712	159.186	-79.5514	-45.0497	184.567	-39.0324	-82.9632	207.025	-53.4574	-76.8864	201.132	-37.2331	-46.9181	202.618	-29.182	-87.2203	224.986	-40.6256	-74.3717	213.408	-28.3335	-45.5793	214.04	-16.4609	-83.1013	227.53	-31.0355	-67.0203	216.728	-18.1913	-42.8485	226.102	-6.71374	-77.7342	237.462	-18.3836	-62.6202	222.143	-14.7489	-41.1887	191.664	14.4864	-52.5762	191.809	23.1345	-27.4326	175.26	1.57763	-37.4961	
209	1.74167	177.924	-30.1642	-14.4516	176.564	-50.8492	-28.3063	167.858	-66.1832	-37.023	156.441	-82.0563	-39.2695	181.08	-42.1159	-78.86	205.948	-55.2937	-73.0233	203.293	-42.5662	-47.4753	199.456	-29.7218	-84.5262	222.559	-44.3332	-72.0387	209.101	-33.571	-44.3056	211.924	-21.193	-82.5013	227.649	-33.1638	-60.0447	212.958	-17.4182	-41.1905	222.148	-10.1155	-77.8358	232.077	-25.0071	-59.9848	221.253	-17.9496	-39.813	192.228	13.4017	-54.3641	194.253	20.5765	-26.3612	176.092	-0.719298	-34.899	
210	1.75	179.059	-27.2383	-13.0345	173.66	-51.1164	-26.8434	163.158	-68.6422	-34.1114	155.762	-80.5238	-31.2019	179.44	-48.8195	-77.1926	202.277	-60.0496	-71.8386	196.453	-45.3224	-42.0393	199.167	-37.8287	-83.9102	216.257	-52.9727	-67.595	207.967	-36.4614	-42.9723	208.619	-24.1628	-80.8785	222.108	-39.4917	-60.5748	210.254	-25.4745	-40.7834	218.724	-10.8987	-77.1451	229.522	-28.7755	-61.2004	218.704	-20.4324	-40.4211	188.371	7.39045	-50.4842	190.707	18.6053	-22.9356	172.305	-3.5083	-30.4282	
